{
	"asset":{
		"generator":"Khronos glTF Blender I/O v4.3.47",
		"version":"2.0"
	},
	"scene":0,
	"scenes":[
		{
			"name":"Scene",
			"nodes":[
				0,
				1,
				2,
				3,
				4,
				5,
				6,
				7,
				8,
				9,
				10,
				11,
				12,
				13,
				14
			]
		}
	],
	"nodes":[
		{
			"mesh":0,
			"name":"Fenster"
		},
		{
			"mesh":1,
			"name":"Fl\u00e4che"
		},
		{
			"mesh":2,
			"name":"Boden"
		},
		{
			"mesh":3,
			"name":"Boden.001"
		},
		{
			"mesh":4,
			"name":"Bonsai"
		},
		{
			"mesh":5,
			"name":"Guitar"
		},
		{
			"mesh":6,
			"name":"iMac"
		},
		{
			"mesh":7,
			"name":"Maus"
		},
		{
			"mesh":8,
			"name":"Schrank"
		},
		{
			"mesh":9,
			"name":"Stehlampe"
		},
		{
			"mesh":10,
			"name":"Stuhl"
		},
		{
			"mesh":11,
			"name":"Tasse"
		},
		{
			"mesh":12,
			"name":"Tastatur"
		},
		{
			"mesh":13,
			"name":"Teppich"
		},
		{
			"mesh":14,
			"name":"Tisch"
		}
	],
	"meshes":[
		{
			"name":"Fl\u00e4che",
			"primitives":[
				{
					"attributes":{
						"POSITION":0,
						"NORMAL":1,
						"TEXCOORD_0":2,
						"TEXCOORD_1":3
					},
					"indices":4
				}
			]
		},
		{
			"name":"Fl\u00e4che.001",
			"primitives":[
				{
					"attributes":{
						"POSITION":5,
						"NORMAL":6,
						"TEXCOORD_0":7,
						"TEXCOORD_1":8
					},
					"indices":9
				}
			]
		},
		{
			"name":"Fl\u00e4che.002",
			"primitives":[
				{
					"attributes":{
						"POSITION":10,
						"NORMAL":11,
						"TEXCOORD_0":12,
						"TEXCOORD_1":13
					},
					"indices":14
				}
			]
		},
		{
			"name":"Fl\u00e4che.003",
			"primitives":[
				{
					"attributes":{
						"POSITION":15,
						"NORMAL":16,
						"TEXCOORD_0":17,
						"TEXCOORD_1":18
					},
					"indices":19
				}
			]
		},
		{
			"name":"mesh430673059",
			"primitives":[
				{
					"attributes":{
						"POSITION":20,
						"NORMAL":21,
						"TEXCOORD_0":22
					},
					"indices":23
				}
			]
		},
		{
			"name":"Mesh1 Model_1",
			"primitives":[
				{
					"attributes":{
						"POSITION":24,
						"NORMAL":25,
						"TEXCOORD_0":26
					},
					"indices":27
				}
			]
		},
		{
			"name":"IMac_01_Cube.026-Mesh",
			"primitives":[
				{
					"attributes":{
						"POSITION":28,
						"NORMAL":29,
						"TEXCOORD_0":30
					},
					"indices":31
				}
			]
		},
		{
			"name":"Mouse",
			"primitives":[
				{
					"attributes":{
						"POSITION":32,
						"NORMAL":33,
						"TEXCOORD_0":34
					},
					"indices":35
				}
			]
		},
		{
			"name":"Shelf Clutter",
			"primitives":[
				{
					"attributes":{
						"POSITION":36,
						"NORMAL":37,
						"TEXCOORD_0":38
					},
					"indices":39
				}
			]
		},
		{
			"name":"Standing_lamp_01_Circle.003-Mesh",
			"primitives":[
				{
					"attributes":{
						"POSITION":40,
						"NORMAL":41,
						"TEXCOORD_0":42
					},
					"indices":43
				}
			]
		},
		{
			"name":"Node-Mesh",
			"primitives":[
				{
					"attributes":{
						"POSITION":44,
						"NORMAL":45,
						"TEXCOORD_0":46
					},
					"indices":47
				}
			]
		},
		{
			"name":"coffeeMug_1",
			"primitives":[
				{
					"attributes":{
						"POSITION":48,
						"NORMAL":49,
						"TEXCOORD_0":50
					},
					"indices":51
				}
			]
		},
		{
			"name":"mesh34220672",
			"primitives":[
				{
					"attributes":{
						"POSITION":52,
						"NORMAL":53,
						"TEXCOORD_0":54
					},
					"indices":55
				}
			]
		},
		{
			"name":"Carpet_1",
			"primitives":[
				{
					"attributes":{
						"POSITION":56,
						"NORMAL":57,
						"TEXCOORD_0":58
					},
					"indices":59
				}
			]
		},
		{
			"name":"Table",
			"primitives":[
				{
					"attributes":{
						"POSITION":60,
						"NORMAL":61,
						"TEXCOORD_0":62
					},
					"indices":63
				}
			]
		}
	],
	"accessors":[
		{
			"bufferView":0,
			"componentType":5126,
			"count":8,
			"max":[
				0.2258482575416565,
				0.8288253545761108,
				-1.0004661083221436
			],
			"min":[
				-0.2972562909126282,
				0.23286327719688416,
				-1.0004661083221436
			],
			"type":"VEC3"
		},
		{
			"bufferView":1,
			"componentType":5126,
			"count":8,
			"type":"VEC3"
		},
		{
			"bufferView":2,
			"componentType":5126,
			"count":8,
			"type":"VEC2"
		},
		{
			"bufferView":3,
			"componentType":5126,
			"count":8,
			"type":"VEC2"
		},
		{
			"bufferView":4,
			"componentType":5123,
			"count":12,
			"type":"SCALAR"
		},
		{
			"bufferView":5,
			"componentType":5126,
			"count":50,
			"max":[
				1.0004860162734985,
				1.0313974618911743,
				1.0004761219024658
			],
			"min":[
				-1.0004761219024658,
				-0.1500714123249054,
				-1.1505475044250488
			],
			"type":"VEC3"
		},
		{
			"bufferView":6,
			"componentType":5126,
			"count":50,
			"type":"VEC3"
		},
		{
			"bufferView":7,
			"componentType":5126,
			"count":50,
			"type":"VEC2"
		},
		{
			"bufferView":8,
			"componentType":5126,
			"count":50,
			"type":"VEC2"
		},
		{
			"bufferView":9,
			"componentType":5123,
			"count":84,
			"type":"SCALAR"
		},
		{
			"bufferView":10,
			"componentType":5126,
			"count":4,
			"max":[
				0.8504046201705933,
				1.0014247891376726e-05,
				1.0004761219024658
			],
			"min":[
				-1.0004761219024658,
				1.0014247891376726e-05,
				-1.0004661083221436
			],
			"type":"VEC3"
		},
		{
			"bufferView":11,
			"componentType":5126,
			"count":4,
			"type":"VEC3"
		},
		{
			"bufferView":12,
			"componentType":5126,
			"count":4,
			"type":"VEC2"
		},
		{
			"bufferView":13,
			"componentType":5126,
			"count":4,
			"type":"VEC2"
		},
		{
			"bufferView":14,
			"componentType":5123,
			"count":6,
			"type":"SCALAR"
		},
		{
			"bufferView":15,
			"componentType":5126,
			"count":22,
			"max":[
				0.8504046201705933,
				1.0313974618911743,
				1.0004761219024658
			],
			"min":[
				-1.0004761219024658,
				1.0014247891376726e-05,
				-1.0004661083221436
			],
			"type":"VEC3"
		},
		{
			"bufferView":16,
			"componentType":5126,
			"count":22,
			"type":"VEC3"
		},
		{
			"bufferView":17,
			"componentType":5126,
			"count":22,
			"type":"VEC2"
		},
		{
			"bufferView":18,
			"componentType":5126,
			"count":22,
			"type":"VEC2"
		},
		{
			"bufferView":19,
			"componentType":5123,
			"count":48,
			"type":"SCALAR"
		},
		{
			"bufferView":20,
			"componentType":5126,
			"count":4003,
			"max":[
				-0.4181293845176697,
				0.5507829785346985,
				-0.6221517324447632
			],
			"min":[
				-0.8931748867034912,
				0.00032007694244384766,
				-0.9239740967750549
			],
			"type":"VEC3"
		},
		{
			"bufferView":21,
			"componentType":5126,
			"count":4003,
			"type":"VEC3"
		},
		{
			"bufferView":22,
			"componentType":5126,
			"count":4003,
			"type":"VEC2"
		},
		{
			"bufferView":23,
			"componentType":5123,
			"count":5712,
			"type":"SCALAR"
		},
		{
			"bufferView":24,
			"componentType":5126,
			"count":22800,
			"max":[
				0.5036345720291138,
				0.6300007700920105,
				-0.6807310581207275
			],
			"min":[
				0.26010599732398987,
				0.000672606285661459,
				-0.946729838848114
			],
			"type":"VEC3"
		},
		{
			"bufferView":25,
			"componentType":5126,
			"count":22800,
			"type":"VEC3"
		},
		{
			"bufferView":26,
			"componentType":5126,
			"count":22800,
			"type":"VEC2"
		},
		{
			"bufferView":27,
			"componentType":5123,
			"count":33510,
			"type":"SCALAR"
		},
		{
			"bufferView":28,
			"componentType":5126,
			"count":453,
			"max":[
				0.7822786569595337,
				0.6240121722221375,
				0.33720946311950684
			],
			"min":[
				0.6579910516738892,
				0.36945876479148865,
				0.054504409432411194
			],
			"type":"VEC3"
		},
		{
			"bufferView":29,
			"componentType":5126,
			"count":453,
			"type":"VEC3"
		},
		{
			"bufferView":30,
			"componentType":5126,
			"count":453,
			"type":"VEC2"
		},
		{
			"bufferView":31,
			"componentType":5123,
			"count":948,
			"type":"SCALAR"
		},
		{
			"bufferView":32,
			"componentType":5126,
			"count":429,
			"max":[
				0.5343689918518066,
				0.3866744637489319,
				0.29732728004455566
			],
			"min":[
				0.4829152524471283,
				0.36971426010131836,
				0.2582228183746338
			],
			"type":"VEC3"
		},
		{
			"bufferView":33,
			"componentType":5126,
			"count":429,
			"type":"VEC3"
		},
		{
			"bufferView":34,
			"componentType":5126,
			"count":429,
			"type":"VEC2"
		},
		{
			"bufferView":35,
			"componentType":5123,
			"count":627,
			"type":"SCALAR"
		},
		{
			"bufferView":36,
			"componentType":5126,
			"count":9342,
			"max":[
				0.8574441075325012,
				0.8659343719482422,
				-0.2480251044034958
			],
			"min":[
				0.7235032320022583,
				0.481685072183609,
				-0.5598875284194946
			],
			"type":"VEC3"
		},
		{
			"bufferView":37,
			"componentType":5126,
			"count":9342,
			"type":"VEC3"
		},
		{
			"bufferView":38,
			"componentType":5126,
			"count":9342,
			"type":"VEC2"
		},
		{
			"bufferView":39,
			"componentType":5123,
			"count":12129,
			"type":"SCALAR"
		},
		{
			"bufferView":40,
			"componentType":5126,
			"count":805,
			"max":[
				0.7472408413887024,
				0.6852020621299744,
				-0.7245726585388184
			],
			"min":[
				0.5555317997932434,
				0,
				-0.9162817001342773
			],
			"type":"VEC3"
		},
		{
			"bufferView":41,
			"componentType":5126,
			"count":805,
			"type":"VEC3"
		},
		{
			"bufferView":42,
			"componentType":5126,
			"count":805,
			"type":"VEC2"
		},
		{
			"bufferView":43,
			"componentType":5123,
			"count":1080,
			"type":"SCALAR"
		},
		{
			"bufferView":44,
			"componentType":5126,
			"count":486,
			"max":[
				0.4062356948852539,
				0.46519821882247925,
				0.15654468536376953
			],
			"min":[
				0.06165027618408203,
				0.0009003430604934692,
				-0.18804216384887695
			],
			"type":"VEC3"
		},
		{
			"bufferView":45,
			"componentType":5126,
			"count":486,
			"type":"VEC3"
		},
		{
			"bufferView":46,
			"componentType":5126,
			"count":486,
			"type":"VEC2"
		},
		{
			"bufferView":47,
			"componentType":5123,
			"count":687,
			"type":"SCALAR"
		},
		{
			"bufferView":48,
			"componentType":5126,
			"count":4272,
			"max":[
				0.7523574233055115,
				0.42232659459114075,
				-0.15783654153347015
			],
			"min":[
				0.6877418160438538,
				0.3700472414493561,
				-0.20040419697761536
			],
			"type":"VEC3"
		},
		{
			"bufferView":49,
			"componentType":5126,
			"count":4272,
			"type":"VEC3"
		},
		{
			"bufferView":50,
			"componentType":5126,
			"count":4272,
			"type":"VEC2"
		},
		{
			"bufferView":51,
			"componentType":5123,
			"count":6336,
			"type":"SCALAR"
		},
		{
			"bufferView":52,
			"componentType":5126,
			"count":1628,
			"max":[
				0.615847110748291,
				0.37567615509033203,
				0.1798914521932602
			],
			"min":[
				0.525181770324707,
				0.36944183707237244,
				-0.01690717041492462
			],
			"type":"VEC3"
		},
		{
			"bufferView":53,
			"componentType":5126,
			"count":1628,
			"type":"VEC3"
		},
		{
			"bufferView":54,
			"componentType":5126,
			"count":1628,
			"type":"VEC2"
		},
		{
			"bufferView":55,
			"componentType":5123,
			"count":2424,
			"type":"SCALAR"
		},
		{
			"bufferView":56,
			"componentType":5126,
			"count":110,
			"max":[
				-0.05471867322921753,
				0.015297307632863522,
				0.750712513923645
			],
			"min":[
				-0.831134557723999,
				0.0019425206119194627,
				-0.3761560022830963
			],
			"type":"VEC3"
		},
		{
			"bufferView":57,
			"componentType":5126,
			"count":110,
			"type":"VEC3"
		},
		{
			"bufferView":58,
			"componentType":5126,
			"count":110,
			"type":"VEC2"
		},
		{
			"bufferView":59,
			"componentType":5123,
			"count":324,
			"type":"SCALAR"
		},
		{
			"bufferView":60,
			"componentType":5126,
			"count":8596,
			"max":[
				0.8333843946456909,
				0.36952656507492065,
				0.48090660572052
			],
			"min":[
				0.278216153383255,
				0.00017690812819637358,
				-0.3074134588241577
			],
			"type":"VEC3"
		},
		{
			"bufferView":61,
			"componentType":5126,
			"count":8596,
			"type":"VEC3"
		},
		{
			"bufferView":62,
			"componentType":5126,
			"count":8596,
			"type":"VEC2"
		},
		{
			"bufferView":63,
			"componentType":5123,
			"count":27324,
			"type":"SCALAR"
		}
	],
	"bufferViews":[
		{
			"buffer":0,
			"byteLength":96,
			"byteOffset":0,
			"target":34962
		},
		{
			"buffer":0,
			"byteLength":96,
			"byteOffset":96,
			"target":34962
		},
		{
			"buffer":0,
			"byteLength":64,
			"byteOffset":192,
			"target":34962
		},
		{
			"buffer":0,
			"byteLength":64,
			"byteOffset":256,
			"target":34962
		},
		{
			"buffer":0,
			"byteLength":24,
			"byteOffset":320,
			"target":34963
		},
		{
			"buffer":0,
			"byteLength":600,
			"byteOffset":344,
			"target":34962
		},
		{
			"buffer":0,
			"byteLength":600,
			"byteOffset":944,
			"target":34962
		},
		{
			"buffer":0,
			"byteLength":400,
			"byteOffset":1544,
			"target":34962
		},
		{
			"buffer":0,
			"byteLength":400,
			"byteOffset":1944,
			"target":34962
		},
		{
			"buffer":0,
			"byteLength":168,
			"byteOffset":2344,
			"target":34963
		},
		{
			"buffer":0,
			"byteLength":48,
			"byteOffset":2512,
			"target":34962
		},
		{
			"buffer":0,
			"byteLength":48,
			"byteOffset":2560,
			"target":34962
		},
		{
			"buffer":0,
			"byteLength":32,
			"byteOffset":2608,
			"target":34962
		},
		{
			"buffer":0,
			"byteLength":32,
			"byteOffset":2640,
			"target":34962
		},
		{
			"buffer":0,
			"byteLength":12,
			"byteOffset":2672,
			"target":34963
		},
		{
			"buffer":0,
			"byteLength":264,
			"byteOffset":2684,
			"target":34962
		},
		{
			"buffer":0,
			"byteLength":264,
			"byteOffset":2948,
			"target":34962
		},
		{
			"buffer":0,
			"byteLength":176,
			"byteOffset":3212,
			"target":34962
		},
		{
			"buffer":0,
			"byteLength":176,
			"byteOffset":3388,
			"target":34962
		},
		{
			"buffer":0,
			"byteLength":96,
			"byteOffset":3564,
			"target":34963
		},
		{
			"buffer":0,
			"byteLength":48036,
			"byteOffset":3660,
			"target":34962
		},
		{
			"buffer":0,
			"byteLength":48036,
			"byteOffset":51696,
			"target":34962
		},
		{
			"buffer":0,
			"byteLength":32024,
			"byteOffset":99732,
			"target":34962
		},
		{
			"buffer":0,
			"byteLength":11424,
			"byteOffset":131756,
			"target":34963
		},
		{
			"buffer":0,
			"byteLength":273600,
			"byteOffset":143180,
			"target":34962
		},
		{
			"buffer":0,
			"byteLength":273600,
			"byteOffset":416780,
			"target":34962
		},
		{
			"buffer":0,
			"byteLength":182400,
			"byteOffset":690380,
			"target":34962
		},
		{
			"buffer":0,
			"byteLength":67020,
			"byteOffset":872780,
			"target":34963
		},
		{
			"buffer":0,
			"byteLength":5436,
			"byteOffset":939800,
			"target":34962
		},
		{
			"buffer":0,
			"byteLength":5436,
			"byteOffset":945236,
			"target":34962
		},
		{
			"buffer":0,
			"byteLength":3624,
			"byteOffset":950672,
			"target":34962
		},
		{
			"buffer":0,
			"byteLength":1896,
			"byteOffset":954296,
			"target":34963
		},
		{
			"buffer":0,
			"byteLength":5148,
			"byteOffset":956192,
			"target":34962
		},
		{
			"buffer":0,
			"byteLength":5148,
			"byteOffset":961340,
			"target":34962
		},
		{
			"buffer":0,
			"byteLength":3432,
			"byteOffset":966488,
			"target":34962
		},
		{
			"buffer":0,
			"byteLength":1254,
			"byteOffset":969920,
			"target":34963
		},
		{
			"buffer":0,
			"byteLength":112104,
			"byteOffset":971176,
			"target":34962
		},
		{
			"buffer":0,
			"byteLength":112104,
			"byteOffset":1083280,
			"target":34962
		},
		{
			"buffer":0,
			"byteLength":74736,
			"byteOffset":1195384,
			"target":34962
		},
		{
			"buffer":0,
			"byteLength":24258,
			"byteOffset":1270120,
			"target":34963
		},
		{
			"buffer":0,
			"byteLength":9660,
			"byteOffset":1294380,
			"target":34962
		},
		{
			"buffer":0,
			"byteLength":9660,
			"byteOffset":1304040,
			"target":34962
		},
		{
			"buffer":0,
			"byteLength":6440,
			"byteOffset":1313700,
			"target":34962
		},
		{
			"buffer":0,
			"byteLength":2160,
			"byteOffset":1320140,
			"target":34963
		},
		{
			"buffer":0,
			"byteLength":5832,
			"byteOffset":1322300,
			"target":34962
		},
		{
			"buffer":0,
			"byteLength":5832,
			"byteOffset":1328132,
			"target":34962
		},
		{
			"buffer":0,
			"byteLength":3888,
			"byteOffset":1333964,
			"target":34962
		},
		{
			"buffer":0,
			"byteLength":1374,
			"byteOffset":1337852,
			"target":34963
		},
		{
			"buffer":0,
			"byteLength":51264,
			"byteOffset":1339228,
			"target":34962
		},
		{
			"buffer":0,
			"byteLength":51264,
			"byteOffset":1390492,
			"target":34962
		},
		{
			"buffer":0,
			"byteLength":34176,
			"byteOffset":1441756,
			"target":34962
		},
		{
			"buffer":0,
			"byteLength":12672,
			"byteOffset":1475932,
			"target":34963
		},
		{
			"buffer":0,
			"byteLength":19536,
			"byteOffset":1488604,
			"target":34962
		},
		{
			"buffer":0,
			"byteLength":19536,
			"byteOffset":1508140,
			"target":34962
		},
		{
			"buffer":0,
			"byteLength":13024,
			"byteOffset":1527676,
			"target":34962
		},
		{
			"buffer":0,
			"byteLength":4848,
			"byteOffset":1540700,
			"target":34963
		},
		{
			"buffer":0,
			"byteLength":1320,
			"byteOffset":1545548,
			"target":34962
		},
		{
			"buffer":0,
			"byteLength":1320,
			"byteOffset":1546868,
			"target":34962
		},
		{
			"buffer":0,
			"byteLength":880,
			"byteOffset":1548188,
			"target":34962
		},
		{
			"buffer":0,
			"byteLength":648,
			"byteOffset":1549068,
			"target":34963
		},
		{
			"buffer":0,
			"byteLength":103152,
			"byteOffset":1549716,
			"target":34962
		},
		{
			"buffer":0,
			"byteLength":103152,
			"byteOffset":1652868,
			"target":34962
		},
		{
			"buffer":0,
			"byteLength":68768,
			"byteOffset":1756020,
			"target":34962
		},
		{
			"buffer":0,
			"byteLength":54648,
			"byteOffset":1824788,
			"target":34963
		}
	],
	"buffers":[
		{
			"byteLength":1879436,
			"uri":"office.bin"
		}
	]
}
